<svg width="51" height="50" viewBox="0 0 51 50" fill="none" xmlns="http://www.w3.org/2000/svg">
<path d="M40.9414 14.1934C38.916 12.1635 36.5088 10.5545 33.8586 9.45936C31.2084 8.36421 28.3676 7.80453 25.5 7.81259H25.4219C13.4043 7.8536 3.625 17.7735 3.625 29.9083V34.3751C3.625 35.2039 3.95424 35.9987 4.54029 36.5848C5.12634 37.1708 5.9212 37.5001 6.75 37.5001H44.25C45.0788 37.5001 45.8737 37.1708 46.4597 36.5848C47.0458 35.9987 47.375 35.2039 47.375 34.3751V29.6876C47.383 26.8075 46.8184 23.9545 45.7139 21.2945C44.6094 18.6346 42.9871 16.2208 40.9414 14.1934ZM44.25 34.3751H23.8809L34.5762 19.6681C34.8202 19.3329 34.921 18.9146 34.8565 18.5051C34.7921 18.0956 34.5676 17.7284 34.2324 17.4845C33.8973 17.2405 33.4789 17.1396 33.0694 17.2041C32.6599 17.2686 32.2928 17.4931 32.0488 17.8282L20.0156 34.3751H6.75V29.9083C6.75 29.3067 6.7793 28.713 6.83398 28.1251H11.4375C11.8519 28.1251 12.2493 27.9605 12.5424 27.6674C12.8354 27.3744 13 26.977 13 26.5626C13 26.1482 12.8354 25.7508 12.5424 25.4577C12.2493 25.1647 11.8519 25.0001 11.4375 25.0001H7.38867C9.4043 17.4102 15.9824 11.672 23.9375 11.004V15.6251C23.9375 16.0395 24.1021 16.4369 24.3951 16.7299C24.6882 17.023 25.0856 17.1876 25.5 17.1876C25.9144 17.1876 26.3118 17.023 26.6049 16.7299C26.8979 16.4369 27.0625 16.0395 27.0625 15.6251V11.002C30.9388 11.3283 34.6181 12.8503 37.592 15.3578C40.5659 17.8654 42.6877 21.2346 43.6641 25.0001H39.5625C39.1481 25.0001 38.7507 25.1647 38.4576 25.4577C38.1646 25.7508 38 26.1482 38 26.5626C38 26.977 38.1646 27.3744 38.4576 27.6674C38.7507 27.9605 39.1481 28.1251 39.5625 28.1251H44.1855C44.2266 28.6427 44.25 29.1622 44.25 29.6876V34.3751Z" fill="#FBFBFB"/>
</svg>
