<svg width="55" height="54" viewBox="0 0 55 54" fill="none" xmlns="http://www.w3.org/2000/svg">
<g filter="url(#filter0_dddddd_177_77225)">
<path d="M46.5 18H16.5C16.1022 18 15.7206 17.842 15.4393 17.5607C15.158 17.2794 15 16.8978 15 16.5C15 16.1022 15.158 15.7206 15.4393 15.4393C15.7206 15.158 16.1022 15 16.5 15H42C42.3978 15 42.7794 14.842 43.0607 14.5607C43.342 14.2794 43.5 13.8978 43.5 13.5C43.5 13.1022 43.342 12.7206 43.0607 12.4393C42.7794 12.158 42.3978 12 42 12H16.5C15.3065 12 14.1619 12.4741 13.318 13.318C12.4741 14.1619 12 15.3065 12 16.5V40.5C12 41.6935 12.4741 42.8381 13.318 43.682C14.1619 44.5259 15.3065 45 16.5 45H46.5C47.2957 45 48.0587 44.6839 48.6213 44.1213C49.1839 43.5587 49.5 42.7956 49.5 42V21C49.5 20.2044 49.1839 19.4413 48.6213 18.8787C48.0587 18.3161 47.2957 18 46.5 18ZM39.75 33C39.305 33 38.87 32.868 38.5 32.6208C38.13 32.3736 37.8416 32.0222 37.6713 31.611C37.501 31.1999 37.4564 30.7475 37.5432 30.311C37.63 29.8746 37.8443 29.4737 38.159 29.159C38.4737 28.8443 38.8746 28.63 39.311 28.5432C39.7475 28.4564 40.1999 28.501 40.611 28.6713C41.0222 28.8416 41.3736 29.13 41.6208 29.5C41.868 29.87 42 30.305 42 30.75C42 31.3467 41.7629 31.919 41.341 32.341C40.919 32.7629 40.3467 33 39.75 33Z" fill="#00C1B6"/>
</g>
<g filter="url(#filter1_dddddd_177_77225)">
<path d="M40.5 12H10.5C10.1022 12 9.72064 11.842 9.43934 11.5607C9.15804 11.2794 9 10.8978 9 10.5C9 10.1022 9.15804 9.72064 9.43934 9.43934C9.72064 9.15804 10.1022 9 10.5 9H36C36.3978 9 36.7794 8.84196 37.0607 8.56066C37.342 8.27936 37.5 7.89782 37.5 7.5C37.5 7.10218 37.342 6.72064 37.0607 6.43934C36.7794 6.15804 36.3978 6 36 6H10.5C9.30653 6 8.16193 6.47411 7.31802 7.31802C6.47411 8.16193 6 9.30653 6 10.5V34.5C6 35.6935 6.47411 36.8381 7.31802 37.682C8.16193 38.5259 9.30653 39 10.5 39H40.5C41.2957 39 42.0587 38.6839 42.6213 38.1213C43.1839 37.5587 43.5 36.7956 43.5 36V15C43.5 14.2044 43.1839 13.4413 42.6213 12.8787C42.0587 12.3161 41.2957 12 40.5 12ZM33.75 27C33.305 27 32.87 26.868 32.5 26.6208C32.13 26.3736 31.8416 26.0222 31.6713 25.611C31.501 25.1999 31.4564 24.7475 31.5432 24.311C31.63 23.8746 31.8443 23.4737 32.159 23.159C32.4737 22.8443 32.8746 22.63 33.311 22.5432C33.7475 22.4564 34.1999 22.501 34.611 22.6713C35.0222 22.8416 35.3736 23.13 35.6208 23.5C35.868 23.87 36 24.305 36 24.75C36 25.3467 35.7629 25.919 35.341 26.341C34.919 26.7629 34.3467 27 33.75 27Z" fill="#00C1B6"/>
</g>
<defs>
<filter id="filter0_dddddd_177_77225" x="1.1616" y="1.1616" width="57.6768" height="57.6768" filterUnits="userSpaceOnUse" color-interpolation-filters="sRGB">
<feFlood flood-opacity="0" result="BackgroundImageFix"/>
<feColorMatrix in="SourceAlpha" type="matrix" values="0 0 0 0 0 0 0 0 0 0 0 0 0 0 0 0 0 0 127 0" result="hardAlpha"/>
<feOffset/>
<feGaussianBlur stdDeviation="0.0576"/>
<feColorMatrix type="matrix" values="0 0 0 0 1 0 0 0 0 1 0 0 0 0 1 0 0 0 1 0"/>
<feBlend mode="normal" in2="BackgroundImageFix" result="effect1_dropShadow_177_77225"/>
<feColorMatrix in="SourceAlpha" type="matrix" values="0 0 0 0 0 0 0 0 0 0 0 0 0 0 0 0 0 0 127 0" result="hardAlpha"/>
<feOffset/>
<feGaussianBlur stdDeviation="0.1152"/>
<feColorMatrix type="matrix" values="0 0 0 0 1 0 0 0 0 1 0 0 0 0 1 0 0 0 1 0"/>
<feBlend mode="normal" in2="effect1_dropShadow_177_77225" result="effect2_dropShadow_177_77225"/>
<feColorMatrix in="SourceAlpha" type="matrix" values="0 0 0 0 0 0 0 0 0 0 0 0 0 0 0 0 0 0 127 0" result="hardAlpha"/>
<feOffset/>
<feGaussianBlur stdDeviation="0.4032"/>
<feColorMatrix type="matrix" values="0 0 0 0 1 0 0 0 0 1 0 0 0 0 1 0 0 0 1 0"/>
<feBlend mode="normal" in2="effect2_dropShadow_177_77225" result="effect3_dropShadow_177_77225"/>
<feColorMatrix in="SourceAlpha" type="matrix" values="0 0 0 0 0 0 0 0 0 0 0 0 0 0 0 0 0 0 127 0" result="hardAlpha"/>
<feOffset/>
<feGaussianBlur stdDeviation="0.8064"/>
<feColorMatrix type="matrix" values="0 0 0 0 1 0 0 0 0 1 0 0 0 0 1 0 0 0 1 0"/>
<feBlend mode="normal" in2="effect3_dropShadow_177_77225" result="effect4_dropShadow_177_77225"/>
<feColorMatrix in="SourceAlpha" type="matrix" values="0 0 0 0 0 0 0 0 0 0 0 0 0 0 0 0 0 0 127 0" result="hardAlpha"/>
<feOffset/>
<feGaussianBlur stdDeviation="1.3824"/>
<feColorMatrix type="matrix" values="0 0 0 0 1 0 0 0 0 1 0 0 0 0 1 0 0 0 1 0"/>
<feBlend mode="normal" in2="effect4_dropShadow_177_77225" result="effect5_dropShadow_177_77225"/>
<feColorMatrix in="SourceAlpha" type="matrix" values="0 0 0 0 0 0 0 0 0 0 0 0 0 0 0 0 0 0 127 0" result="hardAlpha"/>
<feOffset/>
<feGaussianBlur stdDeviation="2.4192"/>
<feColorMatrix type="matrix" values="0 0 0 0 1 0 0 0 0 1 0 0 0 0 1 0 0 0 1 0"/>
<feBlend mode="normal" in2="effect5_dropShadow_177_77225" result="effect6_dropShadow_177_77225"/>
<feBlend mode="normal" in="SourceGraphic" in2="effect6_dropShadow_177_77225" result="shape"/>
</filter>
<filter id="filter1_dddddd_177_77225" x="-4.8384" y="-4.8384" width="57.6768" height="57.6768" filterUnits="userSpaceOnUse" color-interpolation-filters="sRGB">
<feFlood flood-opacity="0" result="BackgroundImageFix"/>
<feColorMatrix in="SourceAlpha" type="matrix" values="0 0 0 0 0 0 0 0 0 0 0 0 0 0 0 0 0 0 127 0" result="hardAlpha"/>
<feOffset/>
<feGaussianBlur stdDeviation="0.0576"/>
<feColorMatrix type="matrix" values="0 0 0 0 1 0 0 0 0 1 0 0 0 0 1 0 0 0 1 0"/>
<feBlend mode="normal" in2="BackgroundImageFix" result="effect1_dropShadow_177_77225"/>
<feColorMatrix in="SourceAlpha" type="matrix" values="0 0 0 0 0 0 0 0 0 0 0 0 0 0 0 0 0 0 127 0" result="hardAlpha"/>
<feOffset/>
<feGaussianBlur stdDeviation="0.1152"/>
<feColorMatrix type="matrix" values="0 0 0 0 1 0 0 0 0 1 0 0 0 0 1 0 0 0 1 0"/>
<feBlend mode="normal" in2="effect1_dropShadow_177_77225" result="effect2_dropShadow_177_77225"/>
<feColorMatrix in="SourceAlpha" type="matrix" values="0 0 0 0 0 0 0 0 0 0 0 0 0 0 0 0 0 0 127 0" result="hardAlpha"/>
<feOffset/>
<feGaussianBlur stdDeviation="0.4032"/>
<feColorMatrix type="matrix" values="0 0 0 0 1 0 0 0 0 1 0 0 0 0 1 0 0 0 1 0"/>
<feBlend mode="normal" in2="effect2_dropShadow_177_77225" result="effect3_dropShadow_177_77225"/>
<feColorMatrix in="SourceAlpha" type="matrix" values="0 0 0 0 0 0 0 0 0 0 0 0 0 0 0 0 0 0 127 0" result="hardAlpha"/>
<feOffset/>
<feGaussianBlur stdDeviation="0.8064"/>
<feColorMatrix type="matrix" values="0 0 0 0 1 0 0 0 0 1 0 0 0 0 1 0 0 0 1 0"/>
<feBlend mode="normal" in2="effect3_dropShadow_177_77225" result="effect4_dropShadow_177_77225"/>
<feColorMatrix in="SourceAlpha" type="matrix" values="0 0 0 0 0 0 0 0 0 0 0 0 0 0 0 0 0 0 127 0" result="hardAlpha"/>
<feOffset/>
<feGaussianBlur stdDeviation="1.3824"/>
<feColorMatrix type="matrix" values="0 0 0 0 1 0 0 0 0 1 0 0 0 0 1 0 0 0 1 0"/>
<feBlend mode="normal" in2="effect4_dropShadow_177_77225" result="effect5_dropShadow_177_77225"/>
<feColorMatrix in="SourceAlpha" type="matrix" values="0 0 0 0 0 0 0 0 0 0 0 0 0 0 0 0 0 0 127 0" result="hardAlpha"/>
<feOffset/>
<feGaussianBlur stdDeviation="2.4192"/>
<feColorMatrix type="matrix" values="0 0 0 0 1 0 0 0 0 1 0 0 0 0 1 0 0 0 1 0"/>
<feBlend mode="normal" in2="effect5_dropShadow_177_77225" result="effect6_dropShadow_177_77225"/>
<feBlend mode="normal" in="SourceGraphic" in2="effect6_dropShadow_177_77225" result="shape"/>
</filter>
</defs>
</svg>
