<svg width="330" height="110" viewBox="0 0 330 110" fill="none" xmlns="http://www.w3.org/2000/svg">
<path d="M50 32.2967C50 14.4597 64.4597 0 82.2967 0H250L94.2914 62.2835C73.0768 70.7693 50 55.1455 50 32.2967Z" fill="#D9D9D9"/>
<path d="M200 77.7033C200 95.5403 185.54 110 167.703 110H0L155.709 47.7165C176.923 39.2307 200 54.8545 200 77.7033Z" fill="#D9D9D9"/>
<path d="M216.26 110L206.6 83.12H215L219.86 98.36L221.42 103.7H222.02L222.92 98.96L227.06 83.12H236.66L241.04 98.96L241.88 103.7H242.48L244.1 98.24L248.66 83.12H257.06L256.1 86.78L247.46 110H237.86L232.88 93.5L232.28 90.68H231.68L230.96 93.5L225.86 110H216.26ZM265.54 79.34C264.06 79.34 262.98 79.04 262.3 78.44C261.62 77.84 261.28 76.84 261.28 75.44C261.28 74 261.6 73 262.24 72.44C262.92 71.84 264.02 71.54 265.54 71.54C267.06 71.54 268.16 71.84 268.84 72.44C269.52 73 269.86 74 269.86 75.44C269.86 76.8 269.52 77.8 268.84 78.44C268.16 79.04 267.06 79.34 265.54 79.34ZM261.88 110V83.12H269.2V110H261.88ZM278.361 110V88.28H274.641V83.18H278.361V77.84C278.361 76.48 278.621 75.22 279.141 74.06C279.701 72.9 280.601 71.96 281.841 71.24C283.121 70.52 284.801 70.16 286.881 70.16H289.881C294.681 70.16 298.121 70.38 300.201 70.82C302.321 71.26 303.381 71.64 303.381 71.96L301.581 76.52C300.901 76.24 299.681 75.98 297.921 75.74C296.161 75.46 294.041 75.32 291.561 75.32H288.561C287.561 75.32 286.821 75.5 286.341 75.86C285.901 76.22 285.681 76.84 285.681 77.72V83.18H298.161V88.28H285.681V110H278.361ZM316.192 110C313.152 110 311.072 109.36 309.952 108.08C308.832 106.8 308.272 104.88 308.272 102.32V88.28H303.352V83.12H305.872C306.632 83.12 307.172 83 307.492 82.76C307.852 82.52 308.112 82.04 308.272 81.32L309.472 74.9H315.592V83.12H328.072V88.28H315.592V102.38C315.592 103.38 315.832 104.04 316.312 104.36C316.792 104.68 317.512 104.84 318.472 104.84H326.932L327.532 109.4C326.692 109.52 325.412 109.66 323.692 109.82C321.972 109.94 320.092 110 318.052 110H316.192Z" fill="white"/>
</svg>
