<svg width="234" height="234" viewBox="0 0 234 234" fill="none" xmlns="http://www.w3.org/2000/svg">
<g clip-path="url(#clip0_190_701)">
<path d="M105.998 118L113.998 112L111.75 109.25L105.998 112L88.25 100.25L102 99.75L130.25 117.75L161.25 97.75L107.5 63.25L114.25 58.25L113.75 56L112 55.25L99.5 62.75L153.25 97.75L130.25 112.5L104 95.25L72.5 95.75L72.25 96.25L105.998 118Z" fill="#8F6DF5"/>
<path d="M124 102.25H120.75L119.75 99.75L126.25 95L73 60L103.5 40L131.25 57.75H144.5L145.75 56.5L127.75 45.25L123.25 47.75L120.75 48.25L120.25 45.75L128.5 40L161.75 62L130.25 62.5L103.5 45.25L81 60L134.75 95L124 102.25Z" fill="#444356"/>
</g>
<g filter="url(#filter0_f_190_701)">
<path d="M76.6826 169.796C76.6826 171.928 76.1455 173.718 75.0713 175.167C73.9971 176.599 72.5404 177.682 70.7012 178.414C68.862 179.13 66.7786 179.488 64.4512 179.488C63.0026 179.488 61.6842 179.415 60.4961 179.269C59.3242 179.138 58.2581 178.959 57.2979 178.731C56.3538 178.504 55.4912 178.243 54.71 177.95V175.436C55.9795 175.924 57.4443 176.355 59.1045 176.729C60.7809 177.088 62.6038 177.267 64.5732 177.267C66.4287 177.267 68.0726 176.998 69.5049 176.461C70.9535 175.924 72.0928 175.11 72.9229 174.02C73.7529 172.929 74.168 171.554 74.168 169.894C74.168 168.429 73.818 167.232 73.1182 166.305C72.4346 165.361 71.401 164.555 70.0176 163.888C68.6341 163.204 66.8926 162.512 64.793 161.812C63.3281 161.308 61.9935 160.779 60.7891 160.226C59.6009 159.656 58.5837 159.005 57.7373 158.272C56.891 157.524 56.2399 156.629 55.7842 155.587C55.3447 154.529 55.125 153.284 55.125 151.852C55.125 149.882 55.6214 148.23 56.6143 146.896C57.6234 145.545 58.9824 144.527 60.6914 143.844C62.4167 143.144 64.3535 142.794 66.502 142.794C68.2109 142.794 69.8304 142.957 71.3604 143.282C72.9066 143.591 74.3958 144.063 75.8281 144.698L74.9492 146.871C73.5169 146.253 72.0846 145.797 70.6523 145.504C69.2201 145.211 67.804 145.064 66.4043 145.064C64.7279 145.064 63.2305 145.317 61.9121 145.821C60.61 146.31 59.5765 147.05 58.8115 148.043C58.0465 149.036 57.6641 150.289 57.6641 151.803C57.6641 153.365 58.014 154.627 58.7139 155.587C59.43 156.547 60.4391 157.345 61.7412 157.979C63.0596 158.614 64.6139 159.233 66.4043 159.835C68.5202 160.551 70.3431 161.308 71.873 162.105C73.403 162.887 74.583 163.88 75.4131 165.084C76.2594 166.288 76.6826 167.859 76.6826 169.796ZM121.203 143.307L111.462 179H109.021L101.379 152.047C101.2 151.477 101.037 150.94 100.891 150.436C100.76 149.915 100.63 149.426 100.5 148.971C100.386 148.499 100.272 148.059 100.158 147.652C100.061 147.229 99.9792 146.847 99.9141 146.505C99.849 146.847 99.7757 147.213 99.6943 147.604C99.6292 147.978 99.5479 148.368 99.4502 148.775C99.3525 149.182 99.2467 149.605 99.1328 150.045C99.0189 150.484 98.8968 150.94 98.7666 151.412L91.1494 179H88.6836L79.0645 143.307H81.6523L88.3662 168.478C88.5452 169.145 88.708 169.78 88.8545 170.382C89.0173 170.984 89.1637 171.57 89.2939 172.14C89.4242 172.693 89.5462 173.238 89.6602 173.775C89.7904 174.296 89.9043 174.825 90.002 175.362C90.1159 174.825 90.2298 174.28 90.3438 173.727C90.4577 173.173 90.5798 172.612 90.71 172.042C90.8564 171.472 91.0029 170.886 91.1494 170.284C91.3122 169.666 91.4912 169.023 91.6865 168.355L98.6934 143.307H101.208L108.483 168.502C108.679 169.202 108.858 169.861 109.021 170.479C109.183 171.098 109.33 171.692 109.46 172.262C109.59 172.815 109.712 173.36 109.826 173.897C109.94 174.418 110.054 174.947 110.168 175.484C110.298 174.752 110.428 174.036 110.559 173.336C110.705 172.62 110.876 171.871 111.071 171.09C111.267 170.309 111.486 169.454 111.73 168.526L118.591 143.307H121.203ZM125.953 179V143.307H128.468V179H125.953ZM139.565 179H137.051V143.307H156.582V145.577H139.565V160.787H155.654V163.033H139.565V179ZM170.023 179H167.484V145.577H155.912V143.307H181.596V145.577H170.023V179Z" fill="url(#paint0_linear_190_701)"/>
</g>
<defs>
<filter id="filter0_f_190_701" x="52.7109" y="140.794" width="130.883" height="40.6943" filterUnits="userSpaceOnUse" color-interpolation-filters="sRGB">
<feFlood flood-opacity="0" result="BackgroundImageFix"/>
<feBlend mode="normal" in="SourceGraphic" in2="BackgroundImageFix" result="shape"/>
<feGaussianBlur stdDeviation="1" result="effect1_foregroundBlur_190_701"/>
</filter>
<linearGradient id="paint0_linear_190_701" x1="117" y1="194" x2="117" y2="126" gradientUnits="userSpaceOnUse">
<stop offset="0.514534" stop-color="#8F6DF5"/>
<stop offset="0.653959" stop-color="#3C2E67"/>
</linearGradient>
<clipPath id="clip0_190_701">
<rect width="89.5" height="78" fill="white" transform="translate(72.25 40)"/>
</clipPath>
</defs>
</svg>
